<?xml version="1.0" encoding="UTF-8" standalone="no"?>
<!-- Created with Inkscape (http://www.inkscape.org/) -->

<svg
   xmlns:dc="http://purl.org/dc/elements/1.1/"
   xmlns:cc="http://creativecommons.org/ns#"
   xmlns:rdf="http://www.w3.org/1999/02/22-rdf-syntax-ns#"
   xmlns:svg="http://www.w3.org/2000/svg"
   xmlns="http://www.w3.org/2000/svg"
   xmlns:sodipodi="http://sodipodi.sourceforge.net/DTD/sodipodi-0.dtd"
   xmlns:inkscape="http://www.inkscape.org/namespaces/inkscape"
   width="13.229166mm"
   height="10.111439mm"
   viewBox="0 0 13.229166 10.111439"
   version="1.1"
   id="svg8"
   inkscape:version="0.92.4 (5da689c313, 2019-01-14)"
   sodipodi:docname="logo_normal.svg">
  <defs
     id="defs2" />
  <sodipodi:namedview
     id="base"
     pagecolor="#ffffff"
     bordercolor="#666666"
     borderopacity="1.0"
     inkscape:pageopacity="0.0"
     inkscape:pageshadow="2"
     inkscape:zoom="0.7"
     inkscape:cx="561.67367"
     inkscape:cy="57.445756"
     inkscape:document-units="mm"
     inkscape:current-layer="layer1"
     showgrid="false"
     showguides="false"
     inkscape:window-width="1366"
     inkscape:window-height="705"
     inkscape:window-x="-8"
     inkscape:window-y="296"
     inkscape:window-maximized="1"
     fit-margin-top="0"
     fit-margin-left="0"
     fit-margin-right="0"
     fit-margin-bottom="0" />
  <metadata
     id="metadata5">
    <rdf:RDF>
      <cc:Work
         rdf:about="">
        <dc:format>image/svg+xml</dc:format>
        <dc:type
           rdf:resource="http://purl.org/dc/dcmitype/StillImage" />
        <dc:title></dc:title>
      </cc:Work>
    </rdf:RDF>
  </metadata>
  <g
     inkscape:label="Layer 1"
     inkscape:groupmode="layer"
     id="layer1"
     transform="translate(-14.841568,-119.88468)">
    <g
       id="g128"
       transform="matrix(0.09329959,0,0,0.09329959,13.456856,117.86753)">
      <path
         style="stroke-width:0.26458332"
         inkscape:connector-curvature="0"
         d="m 69.176973,21.620093 c 1.100389,2.036469 2.212594,4.065875 3.2086,6.156024 0.615788,1.348745 1.191839,2.714932 1.777754,4.076747 0.525033,1.281827 1.183907,2.498887 1.920562,3.669731 0.789596,1.234813 1.764083,2.327098 2.801581,3.355764 1.109974,1.116428 2.452094,1.92482 3.833553,2.654667 1.527566,0.795732 3.15156,1.36425 4.803836,1.834783 1.71106,0.485214 3.478307,0.654785 5.247983,0.727046 2.052442,0.06093 4.092528,-0.161666 6.114608,-0.489342 1.97362,-0.330949 3.90041,-0.867561 5.80156,-1.483027 1.40154,-0.455567 2.75944,-1.031258 4.03979,-1.760794 -17.414785,8.582618 -10.776657,6.799546 -7.71937,4.285642 0.3542,-0.330486 -0.49587,-0.458539 -0.68781,-0.514438 -1.373096,-0.311494 -2.786008,-0.367093 -4.188149,-0.405291 -2.335339,-0.06067 -4.662021,0.162332 -6.978247,0.432091 -3.118533,0.368657 -6.180995,1.06712 -9.218401,1.846466 -3.750807,0.971981 -7.399179,2.278706 -11.009738,3.673827 -4.208794,1.632209 -8.286327,3.569084 -12.316709,5.595369 -0.715719,0.37565 -1.434894,0.744786 -2.147155,1.126947 -0.727051,0.390097 -1.450736,0.786546 -2.170612,1.189736 -0.733695,0.41093 -2.919587,1.670566 -2.189922,1.252522 14.581558,-8.354195 5.927106,-3.365053 2.812145,-1.331584 -4.499578,2.943902 -8.633253,6.374966 -12.53762,10.059873 -3.85623,3.692933 -7.136847,7.89935 -10.06625,12.347734 -2.468205,3.785277 -4.226787,7.904035 -5.230586,12.298862 -0.742388,3.949319 -0.27627,6.995091 1.604713,10.510912 2.77877,4.2134 7.427388,5.87774 12.048484,7.26202 8.200887,2.07402 16.681752,1.85119 25.053581,1.37522 10.925005,-0.72597 21.631828,-3.03805 32.306416,-5.33861 5.00693,-0.97169 10.05096,-1.72785 15.07127,-2.62417 0,0 -1.67588,1.29297 -1.67588,1.29297 v 0 c -7.07261,2.65155 -14.143701,5.33644 -21.405116,7.4375 -10.79427,2.72315 -21.773936,4.74374 -32.891164,5.54949 -8.518876,0.45928 -17.148616,0.64792 -25.474675,-1.54178 -4.901484,-1.523 -9.737779,-3.40259 -12.653757,-7.89696 -2.049541,-3.79665 -2.632731,-6.91517 -1.945808,-11.215147 0.926252,-4.526893 2.640561,-8.778459 5.12458,-12.689998 2.892211,-4.52872 6.151219,-8.811694 9.988123,-12.591465 3.863927,-3.749599 7.965808,-7.241445 12.449945,-10.237722 7.233425,-4.826658 14.829295,-9.096589 22.535117,-13.118763 4.063053,-2.010122 8.175742,-3.924322 12.415997,-5.535727 3.649778,-1.374589 7.338417,-2.655067 11.12688,-3.598013 3.082287,-0.754949 6.18976,-1.420825 9.349866,-1.756217 2.365912,-0.246427 4.742262,-0.435901 7.123212,-0.33153 1.50522,0.07673 3.05113,0.145454 4.47121,0.698534 0.83392,0.433099 1.50549,1.027184 1.5625,2.028219 -0.55763,4.545526 -16.018459,2.946384 -11.317647,7.509203 -1.336005,0.629163 -2.714021,1.160335 -4.131953,1.576488 -1.933387,0.567926 -3.892671,1.051182 -5.890392,1.333704 -2.075063,0.271849 -4.166483,0.443193 -6.260613,0.315193 -1.829575,-0.133469 -3.648548,-0.384136 -5.404461,-0.93789 -1.701033,-0.534252 -3.371842,-1.165262 -4.938959,-2.024822 -1.451493,-0.813742 -2.849387,-1.72021 -4.015287,-2.922611 -1.083691,-1.099235 -2.102826,-2.261926 -2.935123,-3.567279 -0.766652,-1.219968 -1.460643,-2.484758 -2.012056,-3.818142 -0.58215,-1.352743 -1.146561,-2.713034 -1.730939,-4.064844 -0.946446,-2.07896 -1.992278,-4.113397 -3.177979,-6.067054 0,0 9.728512,-5.610064 9.728512,-5.610064 z"
         id="path12" />
      <path
         style="stroke-width:0.26458332"
         inkscape:connector-curvature="0"
         d="m 95.197109,71.762542 c 2.385761,0.733407 4.769244,1.473867 7.146921,2.233137 1.87819,0.628991 3.77176,1.203116 5.69237,1.687115 2.15384,0.522547 4.34922,0.833255 6.54966,1.075706 2.6368,0.284784 5.28742,0.33542 7.93529,0.237165 2.9922,-0.140629 5.94227,-0.66134 8.86823,-1.273596 2.76508,-0.598451 5.46832,-1.434648 8.13621,-2.368145 2.01607,-0.702665 3.97722,-1.544889 5.90227,-2.465073 0.68654,-0.351192 1.37906,-0.692819 2.04772,-1.077769 0.18369,-0.105754 0.72814,-0.434269 0.54439,-0.328602 -8.63177,4.963879 -12.19104,7.099871 -8.71942,5.0196 0.51792,-0.18552 0.87684,-0.78972 1.41431,-0.911336 0.38872,0.245769 -0.49527,0.066 -0.57239,0.05466 -1.04067,-0.12981 -2.08889,-0.06518 -3.13057,0.01035 -1.77796,0.155895 -3.52954,0.512249 -5.26925,0.898826 -2.34318,0.519763 -4.63992,1.220499 -6.91479,1.980269 -2.80588,0.932616 -5.53714,2.064192 -8.24642,3.243437 -3.28594,1.446747 -6.46742,3.110317 -9.6078,4.846328 -5.56851,3.227549 3.3426,-1.940751 5.94199,-3.39952 0.62466,-0.35056 -1.22445,0.743815 -1.83122,1.124503 -1.94432,1.219864 -3.82973,2.514499 -5.70699,3.83419 -4.18808,2.981005 -8.119788,6.294954 -11.955122,9.711558 -3.61202,3.209991 -6.940587,6.708775 -9.947672,10.488025 -2.111375,2.71733 -3.808717,5.67533 -4.247623,9.11795 0.02201,3.57848 2.260639,4.86723 5.233455,6.20474 6.890774,2.29982 14.263368,2.07371 21.427832,1.84475 9.74042,-0.46657 19.36748,-2.07616 28.9311,-3.89634 5.1271,-0.81436 10.08947,-2.49325 15.23492,-3.19355 1.84301,-0.25083 2.84657,-0.2458 4.65641,-0.31039 0.64099,-0.01 1.28198,-0.0199 1.92298,-0.0299 0,0 -2.54407,1.94702 -2.54407,1.94702 v 0 c -1.24058,0.46874 -2.48116,0.93748 -3.72174,1.40622 -2.5764,0.95732 -5.43938,2.05272 -8.05476,2.89656 -5.23787,1.68998 -10.66006,2.65596 -16.04527,3.74227 -9.59915,1.76839 -19.25941,3.32703 -29.026204,3.76056 -7.362732,0.21358 -14.961266,0.44368 -22.003152,-2.06492 -3.484025,-1.68742 -5.697159,-3.22496 -5.992391,-7.34447 0.271732,-3.73373 1.852887,-6.75532 4.076504,-9.73069 2.976541,-3.86177 6.301827,-7.42586 9.928315,-10.68913 3.811881,-3.444163 7.718369,-6.788456 11.875476,-9.813657 6.510052,-4.683257 13.407652,-8.746948 20.471752,-12.557403 3.1739,-1.720575 6.38877,-3.368511 9.70851,-4.792837 2.73922,-1.166836 5.50501,-2.274215 8.34064,-3.187967 2.31021,-0.735608 4.63964,-1.416415 7.01561,-1.908731 1.78716,-0.363588 3.58656,-0.699828 5.41233,-0.786757 1.1278,-0.03947 2.27546,-0.06046 3.37196,0.249381 0.74981,0.269906 1.32548,0.705564 1.50566,1.526801 0.0161,0.772219 -0.5744,1.200465 -1.15071,1.633932 -4.1208,2.893817 -8.62218,5.267058 -13.15496,7.463647 -1.93997,0.872847 -3.91497,1.665417 -5.93401,2.338123 -2.69208,0.888407 -5.41696,1.682083 -8.19994,2.235764 -2.96914,0.57455 -5.96353,1.046255 -8.99291,1.128874 -2.68873,0.04946 -5.3791,-0.03251 -8.05186,-0.351089 -2.2398,-0.275797 -4.47492,-0.615842 -6.661824,-1.184696 -1.926746,-0.512276 -3.826423,-1.112568 -5.715061,-1.750904 -2.370584,-0.77166 -4.743063,-1.545011 -7.156714,-2.17288 0,0 9.262028,-6.35114 9.262028,-6.35114 z"
         id="path14" />
    </g>
  </g>
</svg>
