<?xml version="1.0" encoding="UTF-8" standalone="no"?>
<!-- Created with Inkscape (http://www.inkscape.org/) -->

<svg
   xmlns:dc="http://purl.org/dc/elements/1.1/"
   xmlns:cc="http://creativecommons.org/ns#"
   xmlns:rdf="http://www.w3.org/1999/02/22-rdf-syntax-ns#"
   xmlns:svg="http://www.w3.org/2000/svg"
   xmlns="http://www.w3.org/2000/svg"
   xmlns:sodipodi="http://sodipodi.sourceforge.net/DTD/sodipodi-0.dtd"
   xmlns:inkscape="http://www.inkscape.org/namespaces/inkscape"
   width="50"
   height="38.216461"
   viewBox="0 0 13.229166 10.111439"
   version="1.1"
   id="svg8"
   inkscape:version="0.92.4 (5da689c313, 2019-01-14)"
   sodipodi:docname="logo_bug.svg">
  <defs
     id="defs2" />
  <sodipodi:namedview
     id="base"
     pagecolor="#ffffff"
     bordercolor="#666666"
     borderopacity="1.0"
     inkscape:pageopacity="0.0"
     inkscape:pageshadow="2"
     inkscape:zoom="0.7"
     inkscape:cx="399.32715"
     inkscape:cy="237.07286"
     inkscape:document-units="mm"
     inkscape:current-layer="layer1"
     showgrid="false"
     showguides="false"
     inkscape:window-width="1366"
     inkscape:window-height="705"
     inkscape:window-x="-8"
     inkscape:window-y="296"
     inkscape:window-maximized="1"
     fit-margin-top="0"
     fit-margin-left="0"
     fit-margin-right="0"
     fit-margin-bottom="0"
     units="px" />
  <metadata
     id="metadata5">
    <rdf:RDF>
      <cc:Work
         rdf:about="">
        <dc:format>image/svg+xml</dc:format>
        <dc:type
           rdf:resource="http://purl.org/dc/dcmitype/StillImage" />
        <dc:title></dc:title>
      </cc:Work>
    </rdf:RDF>
  </metadata>
  <g
     inkscape:label="Layer 1"
     inkscape:groupmode="layer"
     id="layer1"
     transform="translate(-14.841568,-119.88468)">
    <g
       id="g110"
       transform="matrix(0.09329959,0,0,0.09329959,13.456856,117.86753)">
      <path
         style="stroke-width:0.26458332"
         inkscape:connector-curvature="0"
         d="m 69.176973,21.620093 c 1.100389,2.036469 2.212594,4.065875 3.2086,6.156024 0.615788,1.348745 1.191839,2.714932 1.777754,4.076747 0.525033,1.281827 1.183907,2.498887 1.920562,3.669731 0.789596,1.234813 1.764083,2.327098 2.801581,3.355764 1.109974,1.116428 2.452094,1.92482 3.833553,2.654667 1.527566,0.795732 3.15156,1.36425 4.803836,1.834783 1.71106,0.485214 3.478307,0.654785 5.247983,0.727046 2.052442,0.06093 4.092528,-0.161666 6.114608,-0.489342 1.97362,-0.330949 3.90041,-0.867561 5.80156,-1.483027 1.40154,-0.455567 2.75944,-1.031258 4.03979,-1.760794 -17.414785,8.582618 -10.776657,6.799546 -7.71937,4.285642 0.3542,-0.330486 -0.49587,-0.458539 -0.68781,-0.514438 -1.373096,-0.311494 -2.786008,-0.367093 -4.188149,-0.405291 -2.335339,-0.06067 -4.662021,0.162332 -6.978247,0.432091 -3.118533,0.368657 -6.180995,1.06712 -9.218401,1.846466 -3.750807,0.971981 -7.399179,2.278706 -11.009738,3.673827 -4.208794,1.632209 -8.286327,3.569084 -12.316709,5.595369 -0.715719,0.37565 -1.434894,0.744786 -2.147155,1.126947 -0.727051,0.390097 -1.450736,0.786546 -2.170612,1.189736 -0.733695,0.41093 -2.919587,1.670566 -2.189922,1.252522 14.581558,-8.354195 5.927106,-3.365053 2.812145,-1.331584 -4.499578,2.943902 -8.633253,6.374966 -12.53762,10.059873 -3.85623,3.692933 -7.136847,7.89935 -10.06625,12.347734 -2.468205,3.785277 -4.226787,7.904035 -5.230586,12.298862 -0.742388,3.949319 -0.27627,6.995091 1.604713,10.510912 2.77877,4.2134 7.427388,5.87774 12.048484,7.26202 8.200887,2.07402 16.681752,1.85119 25.053581,1.37522 10.925005,-0.72597 21.631828,-3.03805 32.306416,-5.33861 5.00693,-0.97169 10.05096,-1.72785 15.07127,-2.62417 0,0 -1.67588,1.29297 -1.67588,1.29297 v 0 c -7.07261,2.65155 -14.143701,5.33644 -21.405116,7.4375 -10.79427,2.72315 -21.773936,4.74374 -32.891164,5.54949 -8.518876,0.45928 -17.148616,0.64792 -25.474675,-1.54178 -4.901484,-1.523 -9.737779,-3.40259 -12.653757,-7.89696 -2.049541,-3.79665 -2.632731,-6.91517 -1.945808,-11.215147 0.926252,-4.526893 2.640561,-8.778459 5.12458,-12.689998 2.892211,-4.52872 6.151219,-8.811694 9.988123,-12.591465 3.863927,-3.749599 7.965808,-7.241445 12.449945,-10.237722 7.233425,-4.826658 14.829295,-9.096589 22.535117,-13.118763 4.063053,-2.010122 8.175742,-3.924322 12.415997,-5.535727 3.649778,-1.374589 7.338417,-2.655067 11.12688,-3.598013 3.082287,-0.754949 6.18976,-1.420825 9.349866,-1.756217 2.365912,-0.246427 4.742262,-0.435901 7.123212,-0.33153 1.50522,0.07673 3.05113,0.145454 4.47121,0.698534 0.83392,0.433099 1.50549,1.027184 1.5625,2.028219 -0.55763,4.545526 -16.018459,2.946384 -11.317647,7.509203 -1.336005,0.629163 -2.714021,1.160335 -4.131953,1.576488 -1.933387,0.567926 -3.892671,1.051182 -5.890392,1.333704 -2.075063,0.271849 -4.166483,0.443193 -6.260613,0.315193 -1.829575,-0.133469 -3.648548,-0.384136 -5.404461,-0.93789 -1.701033,-0.534252 -3.371842,-1.165262 -4.938959,-2.024822 -1.451493,-0.813742 -2.849387,-1.72021 -4.015287,-2.922611 -1.083691,-1.099235 -2.102826,-2.261926 -2.935123,-3.567279 -0.766652,-1.219968 -1.460643,-2.484758 -2.012056,-3.818142 -0.58215,-1.352743 -1.146561,-2.713034 -1.730939,-4.064844 -0.946446,-2.07896 -1.992278,-4.113397 -3.177979,-6.067054 0,0 9.728512,-5.610064 9.728512,-5.610064 z"
         id="path12" />
      <path
         style="stroke-width:0.26458332"
         inkscape:connector-curvature="0"
         d="m 95.197109,71.762542 c 2.385761,0.733407 4.769244,1.473867 7.146921,2.233137 1.87819,0.628991 3.77176,1.203116 5.69237,1.687115 2.15384,0.522547 4.34922,0.833255 6.54966,1.075706 2.6368,0.284784 5.28742,0.33542 7.93529,0.237165 2.9922,-0.140629 5.94227,-0.66134 8.86823,-1.273596 2.76508,-0.598451 5.46832,-1.434648 8.13621,-2.368145 2.01607,-0.702665 3.97722,-1.544889 5.90227,-2.465073 0.68654,-0.351192 1.37906,-0.692819 2.04772,-1.077769 0.18369,-0.105754 0.72814,-0.434269 0.54439,-0.328602 -8.63177,4.963879 -12.19104,7.099871 -8.71942,5.0196 0.51792,-0.18552 0.87684,-0.78972 1.41431,-0.911336 0.38872,0.245769 -0.49527,0.066 -0.57239,0.05466 -1.04067,-0.12981 -2.08889,-0.06518 -3.13057,0.01035 -1.77796,0.155895 -3.52954,0.512249 -5.26925,0.898826 -2.34318,0.519763 -4.63992,1.220499 -6.91479,1.980269 -2.80588,0.932616 -5.53714,2.064192 -8.24642,3.243437 -3.28594,1.446747 -6.46742,3.110317 -9.6078,4.846328 -5.56851,3.227549 3.3426,-1.940751 5.94199,-3.39952 0.62466,-0.35056 -1.22445,0.743815 -1.83122,1.124503 -1.94432,1.219864 -3.82973,2.514499 -5.70699,3.83419 -4.18808,2.981005 -8.119788,6.294954 -11.955122,9.711558 -3.61202,3.209991 -6.940587,6.708775 -9.947672,10.488025 -2.111375,2.71733 -3.808717,5.67533 -4.247623,9.11795 0.02201,3.57848 2.260639,4.86723 5.233455,6.20474 6.890774,2.29982 14.263368,2.07371 21.427832,1.84475 9.74042,-0.46657 19.36748,-2.07616 28.9311,-3.89634 5.1271,-0.81436 10.08947,-2.49325 15.23492,-3.19355 1.84301,-0.25083 2.84657,-0.2458 4.65641,-0.31039 0.64099,-0.01 1.28198,-0.0199 1.92298,-0.0299 0,0 -2.54407,1.94702 -2.54407,1.94702 v 0 c -1.24058,0.46874 -2.48116,0.93748 -3.72174,1.40622 -2.5764,0.95732 -5.43938,2.05272 -8.05476,2.89656 -5.23787,1.68998 -10.66006,2.65596 -16.04527,3.74227 -9.59915,1.76839 -19.25941,3.32703 -29.026204,3.76056 -7.362732,0.21358 -14.961266,0.44368 -22.003152,-2.06492 -3.484025,-1.68742 -5.697159,-3.22496 -5.992391,-7.34447 0.271732,-3.73373 1.852887,-6.75532 4.076504,-9.73069 2.976541,-3.86177 6.301827,-7.42586 9.928315,-10.68913 3.811881,-3.444163 7.718369,-6.788456 11.875476,-9.813657 6.510052,-4.683257 13.407652,-8.746948 20.471752,-12.557403 3.1739,-1.720575 6.38877,-3.368511 9.70851,-4.792837 2.73922,-1.166836 5.50501,-2.274215 8.34064,-3.187967 2.31021,-0.735608 4.63964,-1.416415 7.01561,-1.908731 1.78716,-0.363588 3.58656,-0.699828 5.41233,-0.786757 1.1278,-0.03947 2.27546,-0.06046 3.37196,0.249381 0.74981,0.269906 1.32548,0.705564 1.50566,1.526801 0.0161,0.772219 -0.5744,1.200465 -1.15071,1.633932 -4.1208,2.893817 -8.62218,5.267058 -13.15496,7.463647 -1.93997,0.872847 -3.91497,1.665417 -5.93401,2.338123 -2.69208,0.888407 -5.41696,1.682083 -8.19994,2.235764 -2.96914,0.57455 -5.96353,1.046255 -8.99291,1.128874 -2.68873,0.04946 -5.3791,-0.03251 -8.05186,-0.351089 -2.2398,-0.275797 -4.47492,-0.615842 -6.661824,-1.184696 -1.926746,-0.512276 -3.826423,-1.112568 -5.715061,-1.750904 -2.370584,-0.77166 -4.743063,-1.545011 -7.156714,-2.17288 0,0 9.262028,-6.35114 9.262028,-6.35114 z"
         id="path14" />
      <path
         style="stroke-width:0.26458332"
         inkscape:connector-curvature="0"
         d="m 83.817247,118.21195 c 0.633262,0.47297 1.119722,0.56779 1.88618,0.45866 0.748057,-0.16879 1.4721,-0.43012 2.196296,-0.67938 0.834501,-0.27058 1.637715,-0.61715 2.415032,-1.02174 -0.240567,0.13969 0.927894,-0.51707 0.693751,-0.39175 -0.168214,0.09 -0.32675,0.19824 -0.498666,0.28099 -0.110516,0.0532 0.209746,-0.12723 0.313875,-0.19204 0.275085,-0.17123 0.306155,-0.19428 0.57181,-0.36982 0.387001,-0.25961 0.7586,-0.54374 1.077661,-0.88449 0.05221,-0.0738 0.259064,-0.26546 0.12827,-0.3523 -0.161393,-0.0503 -0.334277,-0.0293 -0.499239,-0.0111 -0.239239,0.0331 -0.474012,0.0921 -0.706628,0.15596 -0.241081,0.0656 -0.479687,0.14098 -0.712576,0.23151 -0.353044,0.14121 -1.097315,0.5983 0.344426,-0.2294 -0.05714,0.0385 -0.116784,0.0805 -0.151024,0.13969 0.02365,0.0662 0.106228,0.0861 0.165449,0.10886 0.13688,0.049 0.278273,0.0791 0.421908,0.0992 0.149352,0.0186 0.299061,0.0341 0.448315,0.0535 0.11375,0.0108 0.213011,0.0224 0.262321,0.13466 0.01696,0.16853 -0.165023,0.26408 -0.285078,0.34576 -0.281215,0.17563 -0.560657,0.354 -0.839295,0.5337 -0.366975,0.22714 -0.717733,0.47848 -1.064906,0.73443 -0.292338,0.21707 -0.574733,0.44829 -0.788733,0.74502 -0.133453,0.23157 -0.102243,0.32692 0.139073,0.42544 0.400052,0.11277 0.821795,0.0995 1.233688,0.10319 0.362929,-0.003 0.179189,0.001 0.551209,-0.0114 0,0 -0.130765,0.0983 -0.130765,0.0983 v 0 c -0.546732,0.14107 -0.274341,0.0712 -0.817168,0.20965 -0.547344,0.12886 -1.125826,0.293 -1.688272,0.16713 -0.28621,-0.12928 -0.375391,-0.29359 -0.222395,-0.58628 0.222885,-0.32344 0.526129,-0.56977 0.840719,-0.80123 0.354287,-0.25819 0.709279,-0.51619 1.082156,-0.74726 0.278236,-0.17915 0.555278,-0.36016 0.837853,-0.53242 0.114163,-0.0718 0.225618,-0.14691 0.329637,-0.23235 -0.03283,-0.041 -0.14577,-0.0326 -0.201613,-0.0478 -0.149145,-0.0189 -0.298577,-0.0357 -0.447394,-0.0572 -0.148942,-0.0253 -0.296508,-0.06 -0.436856,-0.11706 -0.09185,-0.0427 -0.177594,-0.0889 -0.214853,-0.18923 -0.02983,-0.10608 0.02297,-0.17082 0.10645,-0.23529 0.412218,-0.2423 0.808297,-0.51799 1.258173,-0.68549 0.236482,-0.0852 0.476176,-0.1613 0.71931,-0.22532 0.234944,-0.0613 0.472075,-0.11813 0.714248,-0.1419 0.184324,-0.0137 0.38218,-0.0298 0.546928,0.0697 0.158662,0.15664 0.07795,0.32135 -0.04646,0.47836 -0.303651,0.35415 -0.675121,0.63959 -1.05842,0.90282 -0.880235,0.58948 -1.799212,1.11859 -2.72877,1.62613 -0.782233,0.39984 -1.590736,0.74003 -2.426486,1.01294 -0.727511,0.24989 -1.45529,0.5167 -2.211559,0.66573 -0.786154,0.0839 -1.292053,-0.0433 -1.935327,-0.52267 0,0 0.827741,-0.51653 0.827741,-0.51653 z"
         id="path142" />
      <path
         style="stroke-width:0.26458332"
         inkscape:connector-curvature="0"
         d="m 97.254559,119.20511 c 0.622197,0.44416 1.036336,0.51585 1.75025,0.26977 0.380648,-0.1626 0.737092,-0.3748 1.095501,-0.58028 0.0937,-0.0537 0.19991,-0.0901 0.28042,-0.16203 0.0765,-0.0684 -0.17884,0.10078 -0.26826,0.15116 0.50709,-0.30189 1.00968,-0.61128 1.50714,-0.92877 0.34464,-0.22435 0.68328,-0.45781 1.02328,-0.68911 0.18701,-0.1275 0.37867,-0.24814 0.56495,-0.37669 0.0684,-0.036 0.12447,-0.15239 0.14583,-0.0345 -0.16141,0.12695 -0.50799,0.28611 0.42166,-0.23379 0.026,-0.0146 -0.0503,0.0322 -0.0751,0.0487 -0.0645,0.0431 -0.12805,0.0875 -0.1922,0.13106 -0.28323,0.19165 -0.55302,0.40123 -0.81645,0.61898 -0.30523,0.2645 -0.5907,0.55084 -0.86076,0.8509 -0.198,0.21991 -0.38079,0.45479 -0.47403,0.73831 -0.0448,0.18553 0.019,0.27392 0.20063,0.30061 0.32617,0.007 0.63706,-0.11322 0.93724,-0.22728 0.4893,-0.1936 0.96043,-0.42919 1.42873,-0.66819 0.0826,-0.0443 0.1653,-0.0883 0.2477,-0.13297 0.21503,-0.11646 0.27037,-0.14717 0.48094,-0.26735 0.0756,-0.0432 0.30233,-0.17296 0.22638,-0.13037 -0.26385,0.14793 -0.5589,0.32228 -0.14824,0.0812 0.29586,-0.17597 0.59933,-0.33983 0.88357,-0.5345 0.0798,-0.0554 0.15657,-0.11497 0.2262,-0.1828 0.005,-0.004 0.008,-0.0161 0.0139,-0.0133 0.008,0.004 0.007,0.0169 0.0105,0.0254 -0.0714,0.0884 -0.23554,0.13868 -0.34118,0.19727 -0.31112,0.18173 0.18107,-0.10618 0.37319,-0.21204 0.0368,-0.0203 -0.0709,0.045 -0.1061,0.068 -0.11263,0.0736 -0.21799,0.15181 -0.32198,0.2371 -0.17801,0.15546 -0.32247,0.34333 -0.43149,0.55231 -0.0801,0.17544 -0.0671,0.33059 0.0611,0.47342 0.21432,0.16734 0.49316,0.14774 0.74952,0.13053 0.453,-0.0464 0.88562,-0.19085 1.3075,-0.35523 0.0784,-0.0327 0.15746,-0.064 0.23528,-0.0982 0.14465,-0.0635 0.31414,-0.14467 0.45373,-0.21879 0.0717,-0.0381 0.28354,-0.1583 0.21257,-0.11887 -0.42026,0.23348 -0.48325,0.28385 -0.18386,0.0808 0.23706,-0.17513 0.4854,-0.3648 0.59625,-0.64682 0.0414,-0.21973 -0.1789,-0.25583 -0.34747,-0.2799 -0.35007,-0.0261 -0.69142,0.0607 -1.02596,0.15216 -0.24492,0.0675 -0.48382,0.15298 -0.72002,0.24591 0,0 0.0838,-0.0666 0.0838,-0.0666 v 0 c 0.32277,-0.16705 0.64831,-0.3296 0.99056,-0.45384 0.38223,-0.13659 0.77549,-0.26929 1.18763,-0.24065 0.21339,0.0346 0.44066,0.10601 0.42267,0.3654 -0.085,0.30047 -0.336,0.50172 -0.57619,0.6841 -0.5737,0.40238 -1.19725,0.73942 -1.84706,1.00157 -0.42776,0.16164 -0.86618,0.30416 -1.32475,0.34247 -0.27714,0.012 -0.5678,0.0172 -0.78811,-0.17762 -0.13885,-0.16296 -0.1785,-0.33849 -0.0982,-0.54291 0.10233,-0.21974 0.24925,-0.41415 0.42618,-0.58002 0.35772,-0.30967 0.77892,-0.52921 1.19012,-0.76013 0.11018,-0.0585 0.27346,-0.18265 0.39729,-0.1212 0.0661,0.11823 -0.1368,0.20183 -0.20839,0.2694 -0.28079,0.20197 -0.58742,0.3635 -0.88403,0.54049 -0.64107,0.37554 -1.28029,0.75533 -1.93894,1.09961 -0.47086,0.23889 -0.94464,0.47439 -1.4374,0.66544 -0.30952,0.11329 -0.63322,0.2365 -0.96859,0.203 -0.20295,-0.0558 -0.29846,-0.17995 -0.25923,-0.39602 0.0832,-0.29825 0.26886,-0.5437 0.47478,-0.77089 0.27384,-0.30509 0.56462,-0.59467 0.87214,-0.86596 0.26366,-0.21963 0.53306,-0.43165 0.81627,-0.62577 0.30881,-0.20759 0.6145,-0.4535 0.96639,-0.57423 0.10356,0.0842 0.0181,0.12742 -0.0639,0.18984 -0.18509,0.13371 -0.38189,0.25066 -0.57003,0.37999 -0.34148,0.23101 -0.6805,0.46575 -1.02531,0.69176 -0.4972,0.31858 -1,0.62832 -1.50701,0.93106 -0.72327,0.42161 -1.438526,0.87281 -2.205847,1.21124 -0.734226,0.22576 -1.160907,0.12662 -1.790903,-0.32009 0,0 0.545266,-0.34116 0.545266,-0.34116 z"
         id="path144" />
      <path
         style="stroke-width:0.26458332"
         inkscape:connector-curvature="0"
         d="m 111.37029,116.57652 c 0.42604,-0.13649 0.84029,-0.31007 1.26899,-0.43831 0.0652,-0.0174 0.14114,-0.04 0.20394,-0.004 0.0669,0.0737 -0.0337,0.13908 -0.0869,0.18098 -0.22393,0.15867 -1.39135,0.81673 -0.55485,0.33497 -0.27703,0.15674 -0.55269,0.31584 -0.82875,0.47428 -0.0501,0.0288 -0.20067,0.1147 -0.15064,0.0858 0.46552,-0.2692 0.2971,-0.17067 0.12443,-0.0688 -0.29905,0.17185 -0.58673,0.36244 -0.86099,0.57144 -0.19813,0.15215 -0.38302,0.31951 -0.53882,0.51507 -0.0806,0.11458 -0.10448,0.20478 0.0491,0.23649 0.28284,0.0184 0.5625,-0.0523 0.83615,-0.1147 0.47535,-0.11701 0.94214,-0.26504 1.40356,-0.42781 0.49244,-0.17319 0.96886,-0.38666 1.44041,-0.6095 0.33694,-0.1614 0.66755,-0.33555 0.99217,-0.5204 0.33056,-0.18934 -0.1651,0.0962 -0.24821,0.1433 -0.16225,0.092 0.16144,-0.0987 0.21139,-0.14487 0.0317,0.0371 -0.14654,0.0661 -0.18988,0.0802 -0.20571,0.0717 -0.39979,0.17132 -0.59045,0.27564 -0.0362,0.0209 -0.14501,0.0833 -0.10861,0.0627 0.73256,-0.41377 0.21289,-0.11556 0.0151,0.0707 -0.12179,0.11391 -0.23351,0.239 -0.26348,0.40702 0.008,0.17363 0.22027,0.20259 0.35622,0.22451 0.34811,0.0326 0.69101,-0.0448 1.02597,-0.13033 0.45351,-0.12029 0.88649,-0.3016 1.30709,-0.5072 0.53784,-0.3 -0.0471,0.0368 -0.0745,0.0479 -0.0691,0.0282 0.12649,-0.0795 0.18809,-0.12169 0.1684,-0.11541 0.31827,-0.24316 0.46464,-0.38475 0.15811,-0.18032 0.35624,-0.38788 0.33481,-0.645 -0.11802,-0.19665 -0.39667,-0.14777 -0.5892,-0.12545 -0.43886,0.0742 -0.85831,0.22813 -1.26989,0.39299 0,0 0.12228,-0.097 0.12228,-0.097 v 0 c 0.50121,-0.24518 1.01299,-0.483 1.56057,-0.6044 0.24004,-0.0353 0.54059,-0.0797 0.67719,0.17112 0.0407,0.27396 -0.14485,0.49628 -0.31503,0.69236 -0.43759,0.44333 -0.98799,0.74101 -1.53864,1.02461 -0.42439,0.20285 -0.86034,0.38275 -1.31696,0.50019 -0.34167,0.0834 -0.69205,0.15881 -1.04552,0.1145 -0.17242,-0.0357 -0.38165,-0.0923 -0.40272,-0.29821 0.0172,-0.18269 0.12238,-0.32313 0.25498,-0.44538 0.30403,-0.29743 0.67093,-0.50265 1.05002,-0.69712 0.18933,-0.0997 0.38193,-0.19535 0.58694,-0.25879 0.0701,-0.0191 0.25413,-0.0913 0.25599,0.0412 -0.0504,0.0732 -0.12978,0.11773 -0.20525,0.16179 -0.37129,0.21674 -0.41684,0.24244 -0.67135,0.38771 -0.32854,0.1855 -0.66236,0.36156 -1.00302,0.5239 -0.47551,0.22447 -0.95642,0.43824 -1.45311,0.61222 -0.46544,0.16302 -0.93598,0.31249 -1.41552,0.42877 -0.27992,0.0627 -0.57129,0.13871 -0.85943,0.0947 -0.16633,-0.0651 -0.19594,-0.1876 -0.0964,-0.33716 0.15745,-0.20605 0.34862,-0.37995 0.55451,-0.53709 0.28358,-0.21647 0.58156,-0.41338 0.89151,-0.59022 0.29686,-0.17407 0.59498,-0.34594 0.89395,-0.51634 0.1674,-0.0954 0.34676,-0.19964 0.27234,-0.15451 -0.0975,0.0591 -0.19675,0.11536 -0.29513,0.17304 0.17989,-0.10397 0.35979,-0.20792 0.53966,-0.31191 0.10402,-0.0601 -0.20812,0.12013 -0.31209,0.18036 -0.26606,0.1541 0.2294,-0.13527 0.2676,-0.15883 0.0217,-0.0134 0.0433,-0.0271 0.065,-0.0406 0.0473,-0.0333 0.0968,-0.0718 0.14344,-0.10296 -0.0435,-0.0188 -0.0891,-0.0114 -0.13496,-7.9e-4 -0.39985,0.097 -0.78344,0.25302 -1.17734,0.37014 0,0 0.23955,-0.18624 0.23955,-0.18624 z"
         id="path146" />
      <path
         style="stroke-width:0.26458332"
         inkscape:connector-curvature="0"
         d="m 120.97103,115.14937 c -0.51589,0.40825 -1.0119,0.84072 -1.52339,1.2543 -0.30049,0.24081 -0.60527,0.47623 -0.91527,0.70466 -0.1764,0.12991 -0.35378,0.25856 -0.52463,0.39576 -0.005,-0.0474 -0.033,0.0509 -0.0452,0.036 -0.0539,-0.066 -0.0138,-0.0985 -0.0199,-0.0954 -0.38736,0.19779 -0.73217,0.43789 -0.43718,0.23587 0.27108,-0.18808 0.54142,-0.3772 0.81357,-0.56373 0.36006,-0.24959 0.7213,-0.49716 1.09074,-0.73271 0.52626,-0.32318 1.05819,-0.63887 1.60824,-0.92007 0.19259,-0.0969 0.39439,-0.1999 0.6142,-0.20393 0.14961,0.0287 0.13667,0.16543 0.0973,0.2801 -0.0842,0.19266 -0.21498,0.3588 -0.34196,0.52449 -0.13424,0.17853 -0.27357,0.35309 -0.41463,0.52624 -0.06,0.0866 -0.14256,0.16362 -0.18228,0.26306 0.0666,-0.0687 0.19532,-0.0968 0.28413,-0.13578 0.34169,-0.14632 0.67315,-0.31477 1.00169,-0.4882 0.0642,-0.0365 0.25647,-0.14649 0.19255,-0.10953 -0.96908,0.56036 0.12866,-0.0853 0.31257,-0.19555 0.41884,-0.2557 0.84452,-0.49968 1.26951,-0.74493 0.19228,-0.10959 0.507,-0.28911 -0.4435,0.2558 -0.0329,0.0189 0.0617,-0.0462 0.0975,-0.0589 0.19044,-0.0676 0.38179,-0.13271 0.57268,-0.19907 -0.16697,0.12841 -0.33215,0.25911 -0.49579,0.39173 -0.22636,0.18515 -0.43933,0.38511 -0.63984,0.59778 -0.18048,0.18803 -0.33263,0.39654 -0.45097,0.62834 -0.0401,0.10005 -0.13731,0.26317 -0.0125,0.3353 0.24134,0.0327 0.48334,-0.0543 0.70985,-0.12744 0.42502,-0.15004 0.82839,-0.35284 1.22869,-0.5582 0.14581,-0.0886 0.95101,-0.50329 0.11599,-0.053 -0.0766,0.0413 0.14992,-0.0883 0.22434,-0.13338 0.20894,-0.12652 0.22011,-0.13591 0.42271,-0.26717 0.33604,-0.22246 0.66382,-0.45708 0.98698,-0.69777 0.18226,-0.13776 0.36793,-0.27119 0.54488,-0.41581 0.0466,-0.0315 0.14454,-0.17293 0.13266,-0.0374 -0.565,0.34279 0.84634,-0.54043 0.22595,-0.11427 -0.23108,0.15851 -0.43711,0.34867 -0.63982,0.54111 -0.20591,0.19319 -0.3974,0.40078 -0.58121,0.61487 -0.085,0.11842 -0.23278,0.23806 -0.23679,0.39543 0.078,0.0981 0.28408,0.0187 0.38185,-0.006 0.36638,-0.10887 0.71491,-0.26899 1.06137,-0.42848 0.49377,-0.23355 0.9747,-0.49287 1.45022,-0.76128 0.65228,-0.37411 -0.0699,0.0402 -0.0851,0.0483 -0.0786,0.0421 0.1537,-0.0904 0.23055,-0.13562 0.20615,-0.12127 0.41244,-0.2423 0.61887,-0.36309 0.25955,-0.15198 0.52,-0.30257 0.77442,-0.46307 0.0284,0.0166 0.0905,-0.0877 0.11946,-0.0879 0.0243,-1.2e-4 -0.009,0.0548 -0.0305,0.0663 -0.0174,0.008 -0.035,0.0166 -0.0523,0.0251 -0.0355,0.0176 -0.47516,0.26643 -0.23809,0.13214 0.48925,-0.27713 0.65338,-0.38304 0.38018,-0.21046 -0.25991,0.16121 -0.50377,0.34562 -0.74239,0.53639 -0.23095,0.18379 -0.44234,0.38938 -0.63028,0.61672 -0.12081,0.15382 -0.2315,0.31796 -0.28611,0.50724 -0.0196,0.1019 0.0167,0.18168 0.0715,0.26443 0,0 -0.12377,0.0838 -0.12377,0.0838 v 0 c -0.15187,-2.7e-4 -0.31344,0.0115 -0.43881,-0.0894 -0.10886,-0.16901 0.0125,-0.33847 0.11444,-0.48287 0.18286,-0.23695 0.39725,-0.4459 0.63013,-0.63386 0.24439,-0.19606 0.49346,-0.38669 0.76015,-0.55189 0.35149,-0.2217 0.70378,-0.45821 1.0923,-0.60828 0.15736,-0.007 0.11065,0.14831 -0.002,0.18978 -0.25445,0.16346 -0.51673,0.31417 -0.77762,0.46701 -0.63412,0.37069 -1.26542,0.74624 -1.90438,1.10861 -0.48207,0.27074 -0.9692,0.53299 -1.46918,0.76946 -0.35669,0.16476 -0.71555,0.33273 -1.09575,0.43639 -0.1585,0.0319 -0.36285,0.0791 -0.45604,-0.0924 -0.0323,-0.17853 0.10466,-0.3175 0.20891,-0.44747 0.18513,-0.21752 0.37749,-0.42913 0.58578,-0.62489 0.20599,-0.19669 0.41391,-0.39281 0.64804,-0.55628 0.31095,-0.21871 0.63211,-0.44988 0.99376,-0.56604 0.12236,0.0767 0.0205,0.13656 -0.0558,0.20116 -0.17586,0.14857 -0.36429,0.28124 -0.54739,0.4206 -0.32408,0.243 -0.65353,0.4789 -0.99044,0.70385 -0.61956,0.40562 -1.26333,0.77408 -1.9178,1.12029 -0.40636,0.20695 -0.81599,0.41158 -1.24841,0.55928 -0.24004,0.0742 -0.51611,0.17983 -0.7633,0.0841 -0.13857,-0.11971 -0.10227,-0.26817 -0.0331,-0.42245 0.11536,-0.24034 0.265,-0.45767 0.45019,-0.65041 0.20143,-0.21747 0.41616,-0.42123 0.64498,-0.60989 0.16317,-0.13498 0.32946,-0.26652 0.49901,-0.3934 1.47878,-0.64261 0.28283,-0.11666 -0.12166,0.17649 1.08755,-0.63036 0.13838,-0.0799 -0.10361,0.07 -0.5558,0.33331 -1.1104,0.66896 -1.67772,0.98254 -0.33652,0.17726 -0.67574,0.34993 -1.02554,0.4998 -0.11058,0.0458 -0.2825,0.15758 -0.37229,0.0284 -0.0294,-0.1216 0.0949,-0.21859 0.15499,-0.31117 0.14181,-0.17511 0.28899,-0.346 0.42279,-0.52755 0.12482,-0.16221 0.25701,-0.32064 0.34867,-0.50513 0.0302,-0.0667 0.0932,-0.16043 -0.0248,-0.15115 -0.21021,0.0295 -0.40206,0.12449 -0.5888,0.22117 -0.14168,0.0735 -0.149,0.0762 -0.2927,0.1552 -0.0546,0.03 -0.21688,0.1228 -0.16329,0.091 0.93789,-0.55647 0.27247,-0.15388 0.0781,-0.0379 -0.36907,0.23257 -0.72935,0.47808 -1.08665,0.72829 -0.27015,0.18572 -0.53849,0.37395 -0.80791,0.56068 -0.22822,0.16421 -0.77895,0.71018 -0.8889,0.41157 -0.007,-0.0198 0.0497,-0.0378 0.0395,-0.0494 0.16677,-0.14081 0.34435,-0.26796 0.51942,-0.39809 0.3133,-0.22874 0.62049,-0.4657 0.92542,-0.70545 0.52852,-0.41785 1.03807,-0.85926 1.57034,-1.27251 0,0 0.6251,-0.25145 0.6251,-0.25145 z"
         id="path148" />
      <path
         style="stroke-width:0.26458332"
         inkscape:connector-curvature="0"
         d="m 134.14761,113.58013 c -0.47612,0.34458 -0.94115,0.70421 -1.3693,1.10728 -0.24843,0.24243 -0.48807,0.49362 -0.72841,0.74399 -0.16225,0.17089 -0.32287,0.34354 -0.5047,0.49389 -0.21677,0.15604 -0.91319,0.6597 -0.74866,0.27745 0.15501,-0.19799 0.35189,-0.35871 0.5434,-0.51981 0.31152,-0.25824 0.64966,-0.48099 0.99108,-0.69705 0.58633,-0.36008 1.18847,-0.69344 1.80622,-0.99608 0.41341,-0.20539 0.84492,-0.36836 1.28419,-0.50833 0.34619,-0.10774 0.6988,-0.19496 1.06029,-0.22763 0.22227,-0.0113 0.44738,0.001 0.60176,0.17683 0.0996,0.18318 0.0156,0.37662 -0.0561,0.554 -0.10016,0.22544 -0.20244,0.44966 -0.28733,0.6814 -0.0961,0.2788 -0.0248,0.31839 0.2372,0.42118 0.31825,0.0663 0.14621,0.0401 0.5174,0.0698 0,0 -0.23136,0.17102 -0.23136,0.17102 v 0 c -0.57128,0.10812 -0.29783,0.0629 -0.81978,0.13912 -0.27562,0.0164 -0.76159,0.0638 -0.65814,-0.35525 0.0876,-0.251 0.20927,-0.48703 0.34015,-0.71811 0.0977,-0.17242 0.22239,-0.3494 0.24505,-0.55021 -0.0514,-0.18664 -0.27402,-0.18423 -0.43525,-0.18606 -0.34649,0.0236 -0.68376,0.1085 -1.01456,0.21203 -0.43587,0.14097 -0.86332,0.30623 -1.27338,0.5116 -0.219,0.10843 -0.4363,0.21924 -0.65121,0.33564 -0.0709,0.0384 -0.27968,0.1602 -0.21195,0.11647 0.10655,-0.0688 0.21832,-0.12917 0.32861,-0.19179 0.0669,-0.038 -0.13232,0.0786 -0.19849,0.11791 -0.34103,0.2139 -0.6794,0.43353 -0.99185,0.68829 -0.18959,0.15763 -0.38022,0.31613 -0.54426,0.50105 -0.018,0.016 -0.0427,0.0577 -0.0652,0.009 -0.003,-0.006 0.0228,-0.0118 0.0173,-0.009 -0.16025,0.0964 -0.32062,0.19252 -0.48158,0.28768 -0.0387,0.0229 0.17031,-0.10661 0.11095,-0.0766 0.19815,-0.15179 0.37271,-0.32975 0.55006,-0.50487 0.27923,-0.27022 0.5606,-0.53829 0.8505,-0.79711 0.48467,-0.42253 1.00076,-0.80581 1.52697,-1.175 0,0 0.26031,-0.10295 0.26031,-0.10295 z"
         id="path150" />
      <path
         style="stroke-width:0.26458332"
         inkscape:connector-curvature="0"
         d="m 27.484914,98.362123 c -0.298315,0.315156 -0.62533,0.606486 -0.904804,0.939239 -0.06006,0.08025 -0.101028,0.171847 -0.155019,0.256048 -0.05799,0.08392 -0.09627,0.177898 -0.13073,0.27323 -0.03705,0.07944 -0.05839,0.160719 -0.05961,0.24812 -0.0028,0.0683 0.03787,0.12041 0.08109,0.1689 0.06427,0.0664 0.142425,0.11267 0.224432,0.15328 0.137107,0.0565 0.284816,0.0801 0.429749,0.10755 0.172493,0.0382 0.346787,0.0639 0.522544,0.0807 0.221655,0.0143 0.444027,0.006 0.665891,0.002 0.262284,-0.007 0.524017,-0.0281 0.785074,-0.0539 0.28838,-0.0289 0.57459,-0.0738 0.86015,-0.12262 0.326728,-0.055 0.651904,-0.11831 0.976418,-0.18502 0.364503,-0.0749 0.727541,-0.15635 1.089686,-0.241826 0.389427,-0.09176 0.777751,-0.187999 1.165855,-0.28516 0.359259,-0.08938 0.717804,-0.181107 1.07138,-0.291017 0.285025,-0.09572 0.568156,-0.19693 0.849588,-0.302715 0.206002,-0.08477 0.41017,-0.173437 0.604454,-0.282771 -0.763911,0.450974 -0.212987,0.129103 -0.05339,-0.0091 0.05963,-0.05527 0.100211,-0.117888 0.06508,-0.196924 -0.08021,-0.08428 -0.206917,-0.101889 -0.316407,-0.121103 -0.196442,-0.03017 -0.395896,-0.02373 -0.593727,-0.01585 -0.286938,0.0026 -0.571069,0.04177 -0.855607,0.07397 -0.319469,0.04099 -0.636635,0.09745 -0.951381,0.165503 -0.300114,0.0693 -0.597032,0.151315 -0.896012,0.225239 -0.269203,0.06645 -0.536172,0.140857 -0.800031,0.226084 -0.209423,0.06831 -0.415827,0.145127 -0.618892,0.230397 -0.146529,0.06626 -0.292764,0.132643 -0.432213,0.212936 0.687679,-0.361346 0.217318,-0.186634 0.190728,-0.03798 0.0089,0.05194 0.06494,0.07338 0.106857,0.09355 0.122465,0.05376 0.256424,0.07812 0.387697,0.100396 0.226883,0.02702 0.455819,0.03785 0.684135,0.04549 0.312857,0.0061 0.625637,-0.01699 0.937882,-0.03447 0.36199,-0.0177 0.723011,-0.05257 1.082953,-0.09428 0.320389,-0.03324 0.639421,-0.0777 0.95949,-0.11353 0.237538,-0.02133 0.474927,-0.04452 0.712499,-0.06547 0.157414,-0.01426 0.314987,-0.02776 0.471424,-0.05063 0.124482,-0.02355 0.2505,-0.03139 0.37691,-0.03096 0.075,0.0021 0.149995,0.0034 0.225015,0.0042 0.04182,-1.9e-5 0.08363,-0.0011 0.125449,-0.0013 0.02696,-2.65e-4 0.06074,0.0033 0.07771,-0.0084 -0.436642,0.296722 -0.337915,0.194786 -0.646507,0.242601 -0.14968,0.02111 -0.300649,0.02967 -0.450704,0.04679 -0.225701,0.03113 -0.45058,0.06768 -0.676019,0.100636 -0.307051,0.04818 -0.613899,0.09747 -0.920689,0.147323 -0.378679,0.05883 -0.758282,0.111201 -1.136642,0.172201 -0.379526,0.0619 -0.755623,0.14205 -1.131557,0.22235 -0.332644,0.0705 -0.66381,0.14787 -0.994158,0.22838 -0.295826,0.0696 -0.585595,0.16158 -0.873101,0.25938 -0.252744,0.0884 -0.503487,0.18225 -0.749769,0.28735 -0.127497,0.0279 -0.906343,0.47696 -0.284527,0.12441 -0.167479,0.0951 -0.319942,0.21264 -0.466879,0.33638 -0.123949,0.10017 -0.228907,0.22065 -0.311533,0.3566 -0.07019,0.12691 -0.06022,0.23086 0.03779,0.33453 0.257831,0.18079 0.578213,0.23901 0.880131,0.30412 0.739069,0.14034 1.490562,0.19601 2.23882,0.26324 0.149408,0.0128 0.298815,0.0256 0.448225,0.0383 0,0 -0.14402,0.10438 -0.14402,0.10438 v 0 c -0.179708,0.009 -0.359416,0.0181 -0.539126,0.0271 -0.830654,0.0263 -1.667859,0.0406 -2.490978,-0.0943 -0.308642,-0.0622 -0.650502,-0.11888 -0.880845,-0.35308 -0.09027,-0.14512 -0.08768,-0.28131 0.0042,-0.4282 0.09855,-0.14884 0.221017,-0.28188 0.361013,-0.39285 0.156864,-0.12884 0.318106,-0.25366 0.495036,-0.35412 0.310819,-0.18128 0.616402,-0.37178 0.952629,-0.50339 0.247542,-0.1038 0.498941,-0.19808 0.752576,-0.28593 0.287298,-0.0964 0.576821,-0.18677 0.872395,-0.25457 0.331004,-0.0793 0.662299,-0.1576 0.99533,-0.22804 0.379476,-0.0819 0.759156,-0.163339 1.142051,-0.227947 0.384553,-0.06459 0.770387,-0.120992 1.154845,-0.186084 0.314095,-0.05481 0.628168,-0.109673 0.942509,-0.163026 0.230876,-0.03792 0.461375,-0.07843 0.693076,-0.111062 0.152361,-0.0172 0.305229,-0.03033 0.456864,-0.0536 0.27192,-0.04059 0.408178,0.03759 -0.109492,0.333605 -0.02743,-0.0056 -0.05602,-0.0048 -0.08456,-0.0046 -0.04075,-2.65e-4 -0.0815,-7.94e-4 -0.12225,-0.0016 -0.0755,-5.29e-4 -0.15098,-0.0028 -0.226479,-0.0019 -0.127124,0.0033 -0.253293,0.01728 -0.37847,0.03997 -0.159496,0.02275 -0.31985,0.03865 -0.480192,0.05417 -0.239038,0.02405 -0.478256,0.04592 -0.717267,0.07021 -0.31967,0.03715 -0.638638,0.08016 -0.958829,0.112967 -0.358582,0.03939 -0.718055,0.07299 -1.078619,0.08736 -0.308613,0.0146 -0.617961,0.0342 -0.926931,0.0209 -0.225779,-0.0118 -0.452445,-0.0249 -0.676039,-0.0593 -0.132019,-0.0268 -0.266634,-0.05544 -0.387829,-0.116185 -0.05901,-0.03221 -0.113805,-0.0694 -0.132495,-0.137903 -0.01032,-0.244057 0.51001,-0.340345 0.55718,-0.444302 0.141272,-0.07761 0.288449,-0.14361 0.435671,-0.209029 0.205764,-0.08544 0.414774,-0.162758 0.626682,-0.23165 0.265779,-0.08491 0.534627,-0.159174 0.805415,-0.22642 0.30013,-0.0756 0.598424,-0.158594 0.900422,-0.226626 0.316698,-0.06683 0.635463,-0.123799 0.956728,-0.163989 0.286488,-0.03378 0.572905,-0.07014 0.861841,-0.07412 0.201607,-0.0074 0.404714,-0.01225 0.604583,0.02069 0.127188,0.02352 0.26556,0.04777 0.357206,0.147106 0.05141,0.08493 0.05379,0.168764 -0.01553,0.24624 -0.228904,0.240202 -0.580705,0.348183 -0.838123,0.538054 -0.198554,0.105986 -0.404127,0.197228 -0.613336,0.280167 -0.28243,0.105661 -0.566113,0.208169 -0.852961,0.301278 -0.35515,0.108342 -0.714851,0.200028 -1.074989,0.290179 -0.388226,0.0977 -0.776936,0.19346 -1.16672,0.2848 -0.361884,0.0847 -0.724768,0.16486 -1.088911,0.23931 -0.32543,0.0665 -0.651592,0.12929 -0.979112,0.18478 -0.284684,0.0482 -0.570307,0.0913 -0.858157,0.11584 -0.254582,0.0203 -0.509805,0.0356 -0.765321,0.034 -0.213069,-0.002 -0.427093,-0.001 -0.638752,-0.0288 -0.167327,-0.0262 -0.332396,-0.0623 -0.496731,-0.10323 -0.143457,-0.0324 -0.29035,-0.0607 -0.423201,-0.12629 -0.08314,-0.0463 -0.162042,-0.0993 -0.225744,-0.17103 -0.04711,-0.0578 -0.09122,-0.12283 -0.08489,-0.20084 0.0055,-0.0952 0.02773,-0.18517 0.07458,-0.26919 0.03951,-0.100377 0.08175,-0.200308 0.144543,-0.288769 0.06194,-0.08703 0.112564,-0.180149 0.173279,-0.267906 0.28576,-0.335883 0.621971,-0.627306 0.92263,-0.949328 0,0 0.288428,-0.119774 0.288428,-0.119774 z"
         id="path154" />
      <path
         style="stroke-width:0.26458332"
         inkscape:connector-curvature="0"
         d="m 39.007222,103.72084 c -0.49213,0.13911 -0.988277,0.27041 -1.461545,0.4664 -0.265954,0.11791 -0.540872,0.21329 -0.814306,0.31199 -0.397163,0.139 -0.793752,0.27961 -1.19049,0.41983 -0.454033,0.15942 -0.912672,0.30517 -1.36897,0.45788 -0.408223,0.13441 -0.815075,0.27309 -1.22597,0.39918 -0.271526,0.0822 -0.545619,0.15811 -0.824183,0.21259 -0.118827,0.0152 -0.253844,0.0531 -0.368096,8e-5 -0.05664,-0.0405 -0.06675,-0.10057 -0.04953,-0.16417 0.02938,-0.0766 0.07944,-0.13424 0.141676,-0.18597 0.261641,-0.19204 0.549108,-0.34729 0.852943,-0.45952 0.175736,-0.0657 0.360553,-0.0997 0.544544,-0.1327 0.221546,-0.042 0.445447,-0.0683 0.669475,-0.0926 0.234413,-0.0248 0.46936,-0.0435 0.704482,-0.06 0.28235,-0.0189 0.564489,-0.0403 0.84732,-0.0504 0.269632,-0.007 0.539375,-0.005 0.809067,-0.005 0.223618,-0.003 0.446948,-0.003 0.670306,0.009 0.215432,0.0128 0.430263,0.0339 0.645626,0.0475 0.183478,0.009 0.367252,0.005 0.550862,0.004 0.210646,0.003 0.420656,-0.0149 0.630444,-0.0313 0.243642,-0.022 0.485738,-0.0581 0.727898,-0.0922 0.250579,-0.032 0.498142,-0.0827 0.744411,-0.13821 0.242014,-0.053 0.483877,-0.10649 0.724524,-0.16542 0.170291,-0.0438 0.340098,-0.0914 0.50143,-0.16198 0.09007,-0.041 0.177922,-0.0843 0.263877,-0.13338 -0.129714,0.0741 -0.258945,0.14912 -0.389144,0.2224 -0.0428,0.0241 0.07494,-0.0648 0.04347,0.0218 -0.0063,0.0174 -0.0362,0.008 -0.05456,0.0106 -0.08892,0.0195 -0.178633,0.035 -0.267708,0.0537 -0.150556,0.0322 -0.299215,0.0728 -0.447818,0.1129 -0.204015,0.0578 -0.404881,0.12568 -0.606824,0.19013 -0.251148,0.0808 -0.505079,0.15251 -0.757161,0.23023 -0.242692,0.082 -0.478441,0.18245 -0.719736,0.26831 -0.285779,0.1002 -0.574235,0.19218 -0.859906,0.29274 -0.281157,0.10063 -0.555313,0.21848 -0.82681,0.34243 -0.232661,0.10391 -0.458753,0.2215 -0.683754,0.34086 -0.03067,0.0172 -0.06135,0.0343 -0.09202,0.0515 0.125772,-0.0722 0.251055,-0.14531 0.377322,-0.21666 0.02479,-0.014 -0.04877,0.0294 -0.07288,0.0446 -0.05895,0.0371 -0.11584,0.0766 -0.171908,0.11785 -0.05201,0.0429 -0.100406,0.0915 -0.08711,0.16239 0.04736,0.0782 0.176803,0.083 0.258117,0.0952 0.217591,0.0273 0.438074,0.0214 0.656863,0.0169 0.36096,-0.01 0.720749,-0.0416 1.079976,-0.0767 0.469688,-0.0478 0.936143,-0.12213 1.401879,-0.19843 0.504902,-0.0842 1.007255,-0.18237 1.507895,-0.28881 0.470461,-0.1008 0.937993,-0.21455 1.406559,-0.32368 0.348049,-0.0817 0.695259,-0.16688 1.04117,-0.25718 0.209404,-0.0614 0.423423,-0.10577 0.632674,-0.16751 0.06135,-0.0218 0.121365,-0.0484 0.179097,-0.0785 0.01452,-0.008 0.05716,-0.0322 0.0427,-0.0245 -0.381738,0.20452 -0.469432,0.30288 -0.34067,0.16825 0.03664,-0.005 -0.09719,-0.009 -0.125037,-0.0125 -0.143846,-0.0254 -0.288964,-0.0367 -0.434747,-0.0424 -0.20165,-0.008 -0.403098,-5.3e-4 -0.604388,0.0113 -0.247801,0.013 -0.493866,0.0438 -0.739261,0.0794 -0.258059,0.0384 -0.512152,0.0986 -0.763437,0.168 -0.249219,0.0673 -0.487969,0.1639 -0.723067,0.26926 0.182468,-0.12164 -0.675417,0.35286 -0.50125,0.25214 0.451482,-0.26109 0.482155,-0.28316 0.271222,-0.14803 -0.172181,0.11684 -0.333635,0.24924 -0.448236,0.42434 -0.0864,0.15752 -0.02331,0.25507 0.119509,0.33738 0.378217,0.12881 0.786159,0.15574 1.18146,0.1984 0.103333,0.007 0.206664,0.0144 0.309994,0.0216 0,0 -0.09236,0.0677 -0.09236,0.0677 v 0 c -0.136937,0.0172 -0.273878,0.0345 -0.410815,0.0517 -0.504952,0.0584 -1.042072,0.15743 -1.541315,0.0204 -0.178845,-0.10011 -0.264427,-0.23679 -0.163158,-0.43482 0.125101,-0.19827 0.306679,-0.34365 0.499385,-0.47422 0.37773,-0.24396 0.770721,-0.46644 1.185548,-0.64078 0.226023,-0.0941 0.456062,-0.17747 0.693883,-0.2371 0.249571,-0.0637 0.501356,-0.1196 0.756576,-0.15576 0.246774,-0.0344 0.494205,-0.0638 0.743127,-0.0775 0.20446,-0.0124 0.40916,-0.0187 0.614008,-0.0127 0.150601,0.005 0.300509,0.0175 0.450038,0.0364 0.06912,0.007 0.19631,5.3e-4 0.185156,0.10135 -0.165093,0.22257 -0.485736,0.34328 -0.747967,0.44244 -0.213241,0.0604 -0.429154,0.11125 -0.642017,0.17317 -0.352253,0.0939 -0.705487,0.18414 -1.059844,0.2698 -0.474723,0.11485 -0.94887,0.23237 -1.425995,0.33694 -0.504725,0.10921 -1.011219,0.21019 -1.520688,0.29493 -0.466331,0.076 -0.933442,0.14968 -1.403921,0.19514 -0.358783,0.0336 -0.718201,0.0638 -1.078691,0.07 -0.220075,0.002 -0.442092,0.007 -0.660156,-0.0277 -0.108387,-0.0211 -0.241062,-0.043 -0.290092,-0.15601 -0.01892,-0.0923 0.0062,-0.16059 0.07631,-0.22622 0.273211,-0.21226 0.588758,-0.36408 0.887338,-0.53565 0.222562,-0.11627 0.446598,-0.22985 0.676518,-0.33104 0.26995,-0.12094 0.542976,-0.23482 0.822164,-0.33297 0.28539,-0.0993 0.573498,-0.1905 0.858155,-0.29196 0.240488,-0.0877 0.476475,-0.18774 0.720442,-0.26565 0.252254,-0.0762 0.50542,-0.1494 0.756203,-0.23039 0.202366,-0.0651 0.40405,-0.13266 0.60915,-0.18887 0.149336,-0.04 0.298897,-0.0798 0.450366,-0.11104 0.09081,-0.0184 0.181493,-0.0385 0.273132,-0.0521 0.263022,-0.0254 -0.05366,0.43882 -0.418984,0.38113 -0.0949,0.0541 -0.192153,0.10322 -0.291957,0.14772 -0.16923,0.0695 -0.345072,0.12076 -0.521962,0.1668 -0.247862,0.063 -0.496864,0.12124 -0.745702,0.18024 -0.255444,0.0601 -0.512238,0.11454 -0.771916,0.15318 -0.250158,0.0406 -0.500539,0.0818 -0.752986,0.10541 -0.212778,0.0183 -0.425963,0.0339 -0.639704,0.0319 -0.181734,8e-4 -0.363826,0.002 -0.54496,-0.0152 -0.207237,-0.0206 -0.413951,-0.0466 -0.621596,-0.0631 -0.216837,-0.0148 -0.43393,-0.0174 -0.651232,-0.0183 -0.266237,-0.003 -0.532575,-0.007 -0.798775,10e-4 -0.281294,0.0107 -0.56203,0.031 -0.842888,0.0496 -0.234312,0.0168 -0.468487,0.0358 -0.702051,0.0611 -0.223948,0.0257 -0.44763,0.054 -0.668932,0.0976 -0.184137,0.0354 -0.36824,0.0746 -0.542793,0.14499 -0.05039,0.02 -0.08409,0.0328 -0.133305,0.0544 -0.02043,0.009 -0.0799,0.0393 -0.06082,0.0278 0.816544,-0.49253 0.548677,-0.32245 0.372158,-0.21549 -0.05973,0.0443 -0.114475,0.082 -0.143846,0.15249 -0.01836,0.0289 -0.03288,0.057 0.01069,0.0683 0.121087,0.0174 0.24361,-0.0143 0.361873,-0.0365 0.282861,-0.0658 0.562507,-0.1448 0.839537,-0.23186 0.410596,-0.12947 0.818541,-0.26711 1.227365,-0.40203 0.456027,-0.15204 0.913929,-0.29857 1.367427,-0.45811 0.394314,-0.13887 0.788802,-0.27724 1.18354,-0.4149 0.267385,-0.0957 0.534762,-0.1913 0.796819,-0.30095 0.461602,-0.17394 0.941075,-0.29321 1.416507,-0.42244 0,0 -0.460263,0.3531 -0.460263,0.3531 z"
         id="path156" />
      <path
         style="stroke-width:0.26458332"
         inkscape:connector-curvature="0"
         d="m 47.456925,107.24906 c -0.58348,0.13672 -1.161502,0.29557 -1.719897,0.51403 -0.314706,0.13062 -0.617881,0.28653 -0.914733,0.45326 0.05832,-0.0328 0.112781,-0.0737 0.174974,-0.0984 0.04873,-0.0193 -0.08993,0.054 -0.134115,0.0822 -0.156197,0.0998 -0.299968,0.21328 -0.442698,0.3311 -0.128447,0.11428 -0.269105,0.23643 -0.303514,0.41217 0.0085,0.15144 0.168137,0.17307 0.289274,0.19608 0.279638,0.036 0.560459,-0.0121 0.836203,-0.0564 0.429693,-0.0783 0.84709,-0.20887 1.261218,-0.3452 0.50314,-0.16011 0.98266,-0.37934 1.451004,-0.62095 0.618599,-0.35069 0.01386,-9e-5 0.01376,-0.005 -0.0021,-0.0859 0.146426,-0.0901 0.218456,-0.13697 0.203354,-0.13237 0.396515,-0.27667 0.588328,-0.42497 0.302911,-0.23956 0.584885,-0.50323 0.842571,-0.7906 0.164285,-0.18337 0.296926,-0.38945 0.390911,-0.6166 0.05858,-0.1618 0.08516,-0.33251 0.118084,-0.50076 0.02357,-0.1354 0.05693,-0.26684 0.117326,-0.39049 0.08475,-0.15855 0.213641,-0.27997 0.352108,-0.391 0.382193,-0.28358 0.806593,-0.47623 1.252921,-0.62491 0.428278,-0.1426 0.863412,-0.26147 1.302867,-0.36385 0.540329,-0.11854 1.086609,-0.20708 1.634164,-0.28437 0.32349,-0.0455 0.648613,-0.0746 0.974696,-0.0919 0,0 -0.08716,0.0651 -0.08716,0.0651 v 0 c -0.388622,0.0779 -0.777176,0.15617 -1.165362,0.23624 -0.593749,0.12589 -1.187122,0.2542 -1.777214,0.39638 -0.442905,0.11308 -0.882516,0.23816 -1.317006,0.38046 -0.152668,0.0515 -0.304155,0.10337 -0.450705,0.17089 -0.04072,0.0188 -0.158358,0.0837 -0.120594,0.0596 0.07683,-0.0492 0.545631,-0.32298 0.237154,-0.13651 -0.150953,0.11017 -0.293722,0.23026 -0.397502,0.38801 -0.07544,0.11932 -0.121285,0.24878 -0.146333,0.38794 -0.03487,0.16816 -0.05909,0.33882 -0.107051,0.50397 -0.07977,0.22756 -0.199644,0.43553 -0.356195,0.61974 -0.246597,0.2892 -0.520936,0.552 -0.817097,0.79049 -0.531185,0.41858 -1.104043,0.77524 -1.706634,1.0841 -0.468601,0.23819 -0.948603,0.45266 -1.450951,0.61056 -0.415671,0.13483 -0.834644,0.26401 -1.266082,0.33859 -0.278024,0.0427 -0.56284,0.0887 -0.843007,0.0375 -0.150228,-0.0394 -0.300704,-0.0958 -0.30408,-0.27537 0.03807,-0.20001 0.192558,-0.33715 0.342233,-0.46396 0.337275,-0.26726 0.693296,-0.50288 1.077222,-0.70056 0.28816,-0.15719 0.582255,-0.30419 0.887555,-0.42551 0.553514,-0.2077 1.125334,-0.35717 1.700141,-0.49366 0,0 -0.235222,0.17953 -0.235222,0.17953 z"
         id="path158" />
      <path
         style="stroke-width:0.26458332"
         inkscape:connector-curvature="0"
         d="m 49.317727,107.62081 c -0.385183,0.28646 -0.797087,0.54541 -1.139195,0.885 -0.09391,0.0944 -0.163346,0.20372 -0.212048,0.32684 -0.03397,0.0929 -0.03199,0.17833 0.02811,0.25789 0.127064,0.10872 0.299008,0.11858 0.458364,0.13073 0.349123,0.0137 0.694886,-0.0471 1.036982,-0.10885 0.462999,-0.0875 0.91567,-0.21718 1.362472,-0.36518 0.459832,-0.15253 0.900189,-0.35348 1.324721,-0.58556 -0.08604,0.0491 -0.167823,0.10655 -0.258128,0.14728 -0.01683,0.008 0.134753,-0.0768 0.352005,-0.22527 0.147285,-0.10062 0.288647,-0.20865 0.429061,-0.31851 0.157292,-0.13865 0.356264,-0.26447 0.432157,-0.46911 0.0093,-0.14389 -0.170211,-0.1596 -0.276852,-0.17791 -0.255704,-0.0286 -0.513043,0.002 -0.766987,0.0328 -0.340148,0.0452 -0.672761,0.12808 -1.001006,0.22614 -0.301636,0.0896 -0.591735,0.21049 -0.879576,0.33632 0,0 0.08924,-0.0713 0.08924,-0.0713 v 0 c 0.35677,-0.19201 0.719119,-0.37454 1.102942,-0.50729 0.348298,-0.11877 0.702945,-0.21802 1.068533,-0.26734 0.261141,-0.0334 0.526307,-0.0655 0.789078,-0.0303 0.144158,0.029 0.314216,0.0696 0.327662,0.24358 -0.0451,0.21841 -0.246205,0.35147 -0.403555,0.49144 -0.440058,0.35315 -0.913011,0.65729 -1.413918,0.91914 -0.426611,0.22844 -0.868487,0.42627 -1.328981,0.57701 -0.449408,0.14678 -0.904602,0.2758 -1.370062,0.36159 -0.342998,0.0599 -0.690468,0.11828 -1.039982,0.0934 -0.169794,-0.0198 -0.348298,-0.0438 -0.468794,-0.17801 -0.06139,-0.10171 -0.06654,-0.20525 -0.02103,-0.316 0.06084,-0.13471 0.139954,-0.25643 0.246042,-0.36072 0.352105,-0.34645 0.774414,-0.61073 1.169164,-0.90441 0,0 0.363578,-0.14333 0.363578,-0.14333 z"
         id="path160" />
      <path
         style="stroke-width:0.26458332"
         inkscape:connector-curvature="0"
         d="m 52.250387,107.90981 c -0.310478,0.10418 -0.621636,0.21004 -0.920507,0.34491 -0.07387,0.0333 -0.283059,0.15607 -0.217863,0.10793 0.08942,-0.066 0.189669,-0.11734 0.29137,-0.16221 0.03871,-0.0171 -0.06682,0.0519 -0.100227,0.0779 -0.114702,0.10607 -0.167092,0.23372 -0.127534,0.38559 0.08622,0.1703 0.302201,0.18155 0.47013,0.20233 0.41997,0.0255 0.840168,-0.0237 1.257191,-0.0684 0.351076,-0.0421 0.175702,-0.0196 0.526119,-0.0674 0,0 -0.114236,0.0869 -0.114236,0.0869 v 0 c -0.464596,0.13526 -0.23313,0.0709 -0.694333,0.1934 -0.490678,0.11503 -0.989873,0.23733 -1.497248,0.22596 -0.202475,-0.0221 -0.437857,-0.0498 -0.509678,-0.27293 -0.02625,-0.1902 0.04478,-0.35065 0.183666,-0.48284 0.531236,-0.42454 1.180201,-0.64769 1.817936,-0.85333 0,0 -0.364786,0.2822 -0.364786,0.2822 z"
         id="path162" />
      <path
         style="stroke-width:0.26458332"
         inkscape:connector-curvature="0"
         d="m 56.05355,106.95829 c 0.518308,-0.22639 1.049089,-0.4275 1.60714,-0.52732 0.29909,-0.0403 0.601554,-0.0405 0.902764,-0.0432 0.251507,-0.006 0.502811,-0.004 0.753853,0.0128 0.151792,0.009 0.302625,0.0249 0.444085,0.0829 0.08412,0.039 0.123899,0.10137 0.09973,0.19258 -0.253707,0.28308 -0.636641,0.4306 -0.97127,0.60468 -0.218461,0.10501 -0.438009,0.20776 -0.656709,0.3123 -0.288509,0.13359 -0.570672,0.28019 -0.852141,0.42787 -0.146899,0.0761 -0.292052,0.15555 -0.435798,0.23746 -0.04838,0.0276 -0.192957,0.11122 -0.144671,0.0835 0.517983,-0.29742 0.65215,-0.37969 0.347932,-0.19616 -0.243223,0.14607 -0.472964,0.31249 -0.698915,0.48362 -0.128138,0.10185 -0.273762,0.19577 -0.351925,0.3441 -0.03618,0.12869 0.189331,0.11223 0.265843,0.11871 0.437668,0.0101 0.873889,-0.0526 1.30787,-0.1021 0.596979,-0.0735 1.195832,-0.12969 1.794039,-0.1919 0,0 -0.186233,0.141 -0.186233,0.141 v 0 c -0.767614,0.20804 -1.53485,0.42003 -2.31404,0.5813 -0.475295,0.0946 -0.960737,0.20686 -1.448311,0.16824 -0.169222,-0.0346 -0.369533,-0.10766 -0.301672,-0.3205 0.110691,-0.19346 0.299645,-0.3151 0.47921,-0.43978 0.25078,-0.17623 0.499925,-0.35527 0.761632,-0.51519 0.490374,-0.2982 0.98891,-0.58396 1.496801,-0.85136 0.282125,-0.14704 0.565428,-0.2919 0.854006,-0.42598 0.218573,-0.10447 0.439032,-0.20517 0.655072,-0.31481 0.277868,-0.14938 0.07394,-0.0409 -0.467059,0.27472 -0.0063,0.004 0.179909,-0.10241 0.192532,-0.11966 0.05924,-0.043 0.01378,-0.0558 -0.0388,-0.0804 -0.134996,-0.0467 -0.277088,-0.0612 -0.418582,-0.0755 -0.236323,-0.023 -0.473318,-0.0337 -0.710726,-0.0374 -0.287322,-0.007 -0.576276,-0.0131 -0.861642,0.0277 -0.548159,0.0993 -1.069391,0.29868 -1.577772,0.52322 0,0 0.47375,-0.3753 0.47375,-0.3753 z"
         id="path164" />
      <path
         style="stroke-width:0.26458332"
         inkscape:connector-curvature="0"
         d="m 145.66432,111.50036 c -0.0803,0.11873 -0.14891,0.24746 -0.2438,0.35576 -0.083,0.0795 -0.30101,0.25706 -0.45459,0.2156 -0.0219,-0.0105 -0.0346,-0.0318 -0.046,-0.0523 -0.0194,-0.0343 -0.0259,-0.0721 -0.0286,-0.11078 -0.001,-0.046 -2.6e-4,-0.0921 0.002,-0.13807 0.003,-0.0446 0.0143,-0.0877 0.0324,-0.12833 0.0187,-0.0365 0.0455,-0.0677 0.0731,-0.0975 0.12438,-0.1317 0.306,-0.19861 0.45849,-0.28593 0.0454,-0.0175 0.0938,-0.0216 0.14193,-0.0229 0.0493,8e-5 0.0985,-2.6e-4 0.14754,0.005 0.0391,0.006 0.078,0.0124 0.11558,0.0248 0.0435,0.014 0.0723,0.0427 0.0951,0.0813 0.0229,0.0459 0.0255,0.0929 0.0122,0.14152 -0.0145,0.0426 -0.0407,0.0795 -0.0696,0.11345 -0.13366,0.12941 -0.30574,0.21832 -0.48145,0.27841 -0.0462,0.0178 -0.0956,0.0243 -0.1446,0.0289 -0.0473,0.004 -0.0849,-0.008 -0.1191,-0.0405 -0.0314,-0.0343 -0.0398,-0.0767 -0.042,-0.1216 -0.002,-0.0446 0.012,-0.0833 0.0377,-0.11887 0.1281,-0.1272 0.29161,-0.22917 0.467,-0.27435 0.0384,-0.008 0.0681,0.006 0.0959,0.0311 0.0265,0.0728 -0.008,0.15975 -0.0266,0.2312 -0.006,0.0219 -0.0117,0.0438 -0.0175,0.0657 0,0 -0.0988,0.0534 -0.0988,0.0534 v 0 c -0.0139,-0.0108 -0.0278,-0.0215 -0.0417,-0.0323 -0.0564,-0.034 -0.1145,-0.0649 -0.17466,-0.0918 -0.0234,-0.0138 -0.0476,-0.006 -0.0716,0.003 -0.21723,0.0937 0.49837,-0.30223 0.25964,-0.1499 -0.0293,0.0233 -0.0496,0.0503 -0.0516,0.0891 -5.3e-4,0.0327 -0.001,0.0657 0.0242,0.09 0.0295,0.0201 0.0652,0.0161 0.0993,0.012 0.0476,-0.007 0.0943,-0.0181 0.13907,-0.0363 0.23672,-0.0873 -0.50616,0.30698 -0.24493,0.14542 0.0312,-0.0275 0.0565,-0.0602 0.0768,-0.0966 0.0168,-0.0367 0.0237,-0.0704 0.005,-0.10868 -0.0181,-0.0303 -0.044,-0.0459 -0.0781,-0.054 -0.0364,-0.009 -0.0734,-0.0151 -0.1107,-0.018 -0.0478,-0.003 -0.0959,-0.003 -0.14374,-10e-5 -0.0458,0.005 -0.0911,0.0134 -0.1314,0.0369 0.65941,-0.38162 0.37686,-0.24346 0.26435,-0.14283 -0.0275,0.0276 -0.0552,0.0552 -0.0777,0.0872 -0.0224,0.0337 -0.0348,0.0716 -0.0404,0.11171 -0.004,0.0445 -0.002,0.0892 -0.004,0.13384 8e-4,0.0326 0.003,0.0645 0.0196,0.0935 0.006,0.011 0.0102,0.0227 0.0239,0.0176 0.23736,-0.035 -0.44551,0.24554 -0.28385,0.19213 0.11226,-0.0875 0.16486,-0.23698 0.25011,-0.34669 0,0 0.38602,-0.17035 0.38602,-0.17035 z"
         id="path174" />
      <path
         style="stroke-width:0.26458332"
         inkscape:connector-curvature="0"
         d="m 145.71267,114.04994 c -0.1075,0.0899 -0.19755,0.21059 -0.32111,0.28092 -0.12989,0.0739 -0.26102,0.14566 -0.39152,0.21849 -0.0377,8e-4 -0.062,-0.0245 -0.0817,-0.0534 -0.0166,-0.0286 -0.0163,-0.0609 -0.0124,-0.0927 0.007,-0.0378 0.0218,-0.0737 0.0359,-0.10936 0.0125,-0.032 0.025,-0.064 0.0389,-0.0955 0.0141,-0.0315 0.0401,-0.0533 0.0668,-0.0739 0.15019,-0.11168 0.31054,-0.21968 0.49037,-0.27359 0.0496,-0.0123 0.0993,-0.024 0.14963,-0.0324 0.0448,-0.008 0.0902,-0.0101 0.13521,-0.004 0.0357,0.007 0.0616,0.0281 0.0823,0.0571 0.0188,0.028 0.0265,0.0593 0.0291,0.0924 0.002,0.0365 -0.009,0.0703 -0.0265,0.1019 -0.0241,0.0391 -0.0615,0.0646 -0.0999,0.0881 -0.16357,0.098 -0.32151,0.20718 -0.49503,0.287 -0.0493,0.0225 -0.10122,0.0376 -0.15385,0.0498 -0.0445,0.01 -0.087,7.9e-4 -0.12751,-0.018 -0.0354,-0.0174 -0.0579,-0.0459 -0.0757,-0.08 -0.0115,-0.0247 -0.018,-0.0507 -0.02,-0.0778 0.002,-0.14199 0.33273,-0.31178 0.46243,-0.23423 0.0359,0.0333 0.0462,0.0682 0.0302,0.11381 -0.0258,0.0548 -0.0531,0.10886 -0.0784,0.16392 0,0 -0.0796,0.0441 -0.0796,0.0441 v 0 c -0.054,-0.0131 -0.10865,-0.0178 -0.16335,-0.027 -0.036,-0.0133 -0.0393,-0.0335 -0.0612,-0.058 -0.0234,-2.6e-4 -0.0673,0.0215 -0.0458,0.008 0.15487,-0.0967 0.46928,-0.21907 0.31628,-0.19976 -0.009,0.0177 0.003,0.0392 0.008,0.0564 0.0131,0.026 0.0306,0.0443 0.0591,0.0537 0.0377,0.0105 0.0746,0.009 0.11207,-0.003 0.051,-0.0145 0.10122,-0.032 0.14813,-0.0571 0.13415,-0.0749 0.0776,-0.0435 -0.31749,0.18471 -0.0523,0.0302 0.14656,-0.0915 0.0856,-0.0541 0.037,-0.0212 0.0768,-0.0397 0.10632,-0.0714 0.0201,-0.0218 0.0347,-0.0468 0.0383,-0.0768 1.8e-4,-0.0252 -0.002,-0.0487 -0.0168,-0.07 -0.0157,-0.0197 -0.0377,-0.0264 -0.0625,-0.0271 -0.0431,-0.001 -0.086,0.004 -0.12819,0.0127 -0.0491,0.0101 -0.0983,0.0209 -0.14562,0.0375 -0.26114,0.10599 0.4632,-0.27965 0.23869,-0.14397 -0.0252,0.0182 -0.0523,0.0345 -0.0738,0.0572 -0.0189,0.0276 -0.0284,0.0601 -0.0412,0.0907 -0.0135,0.0339 -0.0279,0.0675 -0.0391,0.10229 -0.006,0.0197 -0.0117,0.0427 -0.003,0.0626 0.0144,0.0197 0.0275,0.0181 0.0489,0.007 -0.11221,0.0655 -0.22458,0.13075 -0.33662,0.19656 -0.013,0.008 0.0269,-0.0138 0.0395,-0.0221 0.10629,-0.0699 0.19342,-0.16526 0.28658,-0.25065 0,0 0.3898,-0.16118 0.3898,-0.16118 z"
         id="path176" />
      <path
         style="stroke-width:0.26458332"
         inkscape:connector-curvature="0"
         d="m 145.86498,108.95954 c 0.16514,0.0474 0.3305,0.0948 0.49844,0.13137 0.0632,0.0138 0.1253,0.0322 0.18772,0.0491 0.0762,0.0206 0.15248,0.0405 0.22878,0.0605 0.0744,0.0209 0.1493,0.04 0.22355,0.0614 0.0739,0.0206 0.14327,0.0527 0.21117,0.0878 0.0634,0.034 0.12657,0.0684 0.19009,0.10212 0.0621,0.032 0.12374,0.0648 0.18327,0.10142 0.0516,0.0329 0.10216,0.0673 0.15307,0.10114 0.0462,0.0308 0.0883,0.067 0.12788,0.10579 0.0386,0.0394 0.0759,0.0801 0.11368,0.12035 0.0397,0.0446 0.0762,0.0919 0.11515,0.13709 0.0366,0.0383 0.0682,0.0807 0.0962,0.12558 0.0249,0.0434 0.0489,0.0872 0.0749,0.13001 0.0286,0.0425 0.049,0.0888 0.065,0.13727 0.0138,0.0466 0.0254,0.0939 0.0374,0.14106 0.0138,0.054 0.0264,0.10837 0.0383,0.16284 0.0123,0.0638 0.0333,0.12537 0.0519,0.18749 0.0205,0.0632 0.0367,0.12769 0.051,0.1926 0.0126,0.06 0.0248,0.12007 0.0373,0.18008 0.0123,0.0605 0.0264,0.12069 0.0373,0.18148 0.01,0.0609 0.009,0.12277 0.008,0.18424 -0.001,0.0602 -0.001,0.12037 -0.001,0.18056 -2.6e-4,0.0581 0.001,0.11625 -5.3e-4,0.17434 -0.004,0.0537 -0.004,0.10761 -0.009,0.16124 -0.007,0.0548 -0.0215,0.10805 -0.0322,0.16211 -0.009,0.054 -0.0162,0.1082 -0.0244,0.16228 -0.007,0.0573 -0.0168,0.11405 -0.0291,0.17041 -0.0128,0.0524 -0.0222,0.10555 -0.0304,0.15885 -0.008,0.0541 -0.02,0.10738 -0.0331,0.16039 -0.0118,0.0463 -0.0246,0.0924 -0.0382,0.13818 -0.0134,0.0351 -0.0189,0.0714 -0.0213,0.10859 -0.002,0.0368 -0.0146,0.0713 -0.0277,0.10526 -0.014,0.0343 -0.0276,0.0688 -0.0399,0.10378 -0.0129,0.0386 -0.0253,0.0773 -0.0381,0.11592 -0.0116,0.0355 -0.0245,0.0704 -0.0378,0.1053 -0.0127,0.0333 -0.0255,0.0666 -0.0382,0.0999 -0.0128,0.0335 -0.0255,0.067 -0.0382,0.10047 -0.0144,0.0361 -0.0268,0.073 -0.0387,0.10995 -0.0128,0.0404 -0.0255,0.0809 -0.0382,0.12139 -0.0111,0.0364 -0.0241,0.0721 -0.0376,0.10764 -0.0119,0.0315 -0.024,0.0628 -0.0376,0.0936 -0.0122,0.0269 -0.0252,0.0534 -0.0381,0.08 -0.0126,0.0319 -0.0363,0.0567 -0.0561,0.084 -0.0217,0.0308 -0.0467,0.0589 -0.0739,0.0849 -0.0368,0.0289 -0.0714,0.0598 -0.10426,0.0931 -0.0403,0.0426 -0.0804,0.0854 -0.12378,0.12491 -0.0989,0.09 -0.22045,0.14914 -0.33774,0.21103 0,0 -0.13197,0.0515 -0.13197,0.0515 v 0 c 5.3e-4,-0.009 -0.008,-0.0256 -0.003,-0.034 0.0183,-0.0301 0.0563,-0.044 0.0798,-0.0688 0.0444,-0.0377 0.0862,-0.0777 0.12469,-0.12154 0.0324,-0.0342 0.0637,-0.0697 0.10256,-0.0969 0.0291,-0.022 0.0548,-0.0473 0.0775,-0.0759 0.0194,-0.0259 0.0389,-0.0515 0.0593,-0.0766 0.0127,-0.0265 0.0254,-0.053 0.0384,-0.0794 0.0143,-0.0298 0.0276,-0.06 0.0388,-0.0911 0.0135,-0.0349 0.0273,-0.0697 0.0388,-0.10539 0.0128,-0.0405 0.0256,-0.081 0.0382,-0.12147 0.0118,-0.0376 0.0233,-0.0753 0.0376,-0.11202 0.0127,-0.0335 0.0255,-0.067 0.0382,-0.10049 0.0127,-0.0333 0.0254,-0.0667 0.0382,-0.0999 0.0132,-0.0344 0.0267,-0.0688 0.0386,-0.1037 0.0129,-0.0386 0.0258,-0.0772 0.0381,-0.11598 0.0116,-0.0358 0.024,-0.0713 0.0388,-0.10586 0.0126,-0.0307 0.027,-0.0611 0.0332,-0.0939 0.004,-0.0393 0.002,-0.0795 0.0175,-0.11686 0.0141,-0.0452 0.0271,-0.0907 0.0392,-0.13648 0.0136,-0.0518 0.0263,-0.10383 0.0349,-0.15668 0.008,-0.0541 0.0161,-0.10838 0.0291,-0.16156 0.013,-0.0554 0.0247,-0.11117 0.0304,-0.16791 0.009,-0.0543 0.0161,-0.10894 0.0237,-0.16347 0.01,-0.0534 0.0232,-0.10588 0.0336,-0.15918 0.007,-0.0527 0.006,-0.10575 0.0102,-0.1587 0.004,-0.0575 7.9e-4,-0.11515 0.002,-0.17271 0,-0.0603 5e-5,-0.1207 0.001,-0.18105 8e-4,-0.0591 0.003,-0.11856 -0.004,-0.17739 -0.01,-0.0605 -0.0246,-0.12002 -0.0366,-0.18011 -0.0125,-0.0599 -0.0248,-0.11986 -0.0371,-0.1798 -0.0137,-0.064 -0.0289,-0.12766 -0.0493,-0.18987 -0.0186,-0.0631 -0.0407,-0.12547 -0.0536,-0.19014 -0.0118,-0.054 -0.0241,-0.1079 -0.0378,-0.16146 -0.0118,-0.0463 -0.0234,-0.0927 -0.0362,-0.1387 -0.0143,-0.0456 -0.033,-0.089 -0.0601,-0.12867 -0.0258,-0.0426 -0.0498,-0.0862 -0.0745,-0.12943 -0.0271,-0.043 -0.0579,-0.0833 -0.0929,-0.12029 -0.0384,-0.0449 -0.0745,-0.0917 -0.11422,-0.13544 -0.0373,-0.0398 -0.0741,-0.08 -0.11264,-0.11853 -0.0384,-0.0365 -0.0792,-0.0704 -0.12367,-0.0994 -0.0504,-0.0336 -0.10055,-0.0677 -0.15205,-0.0997 -0.0593,-0.0355 -0.12062,-0.0674 -0.18184,-0.0995 -0.0632,-0.0337 -0.12611,-0.0682 -0.18963,-0.10145 -0.0664,-0.0331 -0.13458,-0.062 -0.20649,-0.0811 -0.0743,-0.0206 -0.14872,-0.0404 -0.22307,-0.0607 -0.0764,-0.0201 -0.15283,-0.0401 -0.22911,-0.0607 -0.0619,-0.0168 -0.12379,-0.034 -0.18646,-0.0479 -0.16737,-0.0401 -0.33254,-0.0885 -0.49843,-0.13418 0,0 0.34805,-0.23832 0.34805,-0.23832 z"
         id="path178" />
    </g>
  </g>
</svg>
